<svg xmlns="http://www.w3.org/2000/svg" xmlns:xlink="http://www.w3.org/1999/xlink" width="443" height="200" viewBox="0 0 443 200" fill="none"><rect x="0" y="0" width="0" height="0" fill="rgba(249, 249, 249, 1)" /><defs><rect id="path_0" x="0" y="0" width="443" height="200" /></defs><g opacity="1" transform="translate(0 0)  rotate(0 221.5 100)"><rect fill="#FFFFFF" opacity="1" transform="translate(0 0)  rotate(0 221.5 100)" x="0" y="0" width="443" height="200" /><mask id="bg-mask-0" fill="white"><use xlink:href="#path_0"></use></mask><g mask="url(#bg-mask-0)" ><g opacity="1" transform="translate(60 60)  rotate(0 161.5 40)"><g opacity="1" transform="translate(0 0)  rotate(0 187 31.5)"><g opacity="1" transform="translate(0 0)  rotate(0 73.5 10)"><g opacity="1" transform="translate(0 0)  rotate(0 73.5 10)"><text><tspan x="0" y="15.13" font-size="15" line-height="20" fill="#4596FF" opacity="1" font-family="HarmonyOSSansSC-Bold" letter-spacing="0"  >Welcome</tspan><tspan x="65.475" y="15.13" font-size="15" line-height="20" fill="#4596FF" opacity="1" font-family="HarmonyOSSansSC-Bold" letter-spacing="0"  > to</tspan><tspan x="84.88499999999999" y="15.13" font-size="15" line-height="20" fill="#4596FF" opacity="1" font-family="HarmonyOSSansSC-Bold" letter-spacing="0"  > my</tspan><tspan x="110.57999999999998" y="15.13" font-size="15" line-height="20" fill="#4596FF" opacity="1" font-family="HarmonyOSSansSC-Bold" letter-spacing="0" > blog</tspan></text></g></g><g opacity="1" transform="translate(0 28)  rotate(0 163 18)"><g opacity="1" transform="translate(0 0)  rotate(0 163 18)"><text><tspan x="0" y="28.944" font-size="32" line-height="36" fill="#202020" opacity="1" font-family="HarmonyOSSansSC-Bold" letter-spacing="0"  >This</tspan><tspan x="62.303999999999995" y="28.944" font-size="32" line-height="36" fill="#202020" opacity="1" font-family="HarmonyOSSansSC-Bold" letter-spacing="0" > is「Xingguang」</tspan></text></g></g></g></g></g></g></svg>