<svg viewBox="0 0 500 500" xmlns:xlink="http://www.w3.org/1999/xlink" xmlns="http://www.w3.org/2000/svg"><defs><style>.cls-1,.cls-11,.cls-13,.cls-16,.cls-3,.cls-4,.cls-5{fill:none;}.cls-2{fill:url(#未命名的渐变);}.cls-3,.cls-4,.cls-5{stroke:#fff;}.cls-3,.cls-4{stroke-width:4.5px;}.cls-11,.cls-13,.cls-4{stroke-linecap:round;}.cls-6{fill:#f35f83;}.cls-7{fill:url(#未命名的渐变_8);}.cls-10,.cls-8{fill:#372732;}.cls-8{fill-opacity:0.55;}.cls-9{fill:url(#未命名的渐变_8-2);}.cls-11{stroke:#4e3b48;}.cls-11,.cls-16{stroke-width:0.5px;}.cls-12{fill:#703f63;}.cls-13{stroke:#703f63;stroke-width:0.9px;}.cls-14{fill:url(#未命名的渐变_4);}.cls-15{fill:#c75236;}.cls-16{stroke:#e35938;}.cls-17{fill:url(#未命名的渐变_8-3);}.cls-18{fill:url(#未命名的渐变_11);}.cls-19{fill:url(#未命名的渐变_8-4);}.cls-20{fill:#fff;}.cls-21{fill:url(#未命名的渐变_8-5);}.cls-22{fill:url(#未命名的渐变_11-2);}.cls-23{fill-opacity:0.14;}.cls-24{fill:url(#未命名的渐变_11-3);}.cls-25{fill:url(#未命名的渐变_11-4);}.cls-26{fill:url(#未命名的渐变_13);}.cls-27{fill:url(#未命名的渐变_13-2);}</style><linearGradient gradientUnits="userSpaceOnUse" gradientTransform="translate(-499081.95 169957.34) scale(377.34 329.41)" y2="-515.02" x2="1323.41" y1="-515.56" x1="1323.24" id="未命名的渐变"><stop stop-opacity="0.82" stop-color="#ffe794" offset="0"></stop><stop stop-color="#ffd09a" offset="1"></stop></linearGradient><linearGradient gradientUnits="userSpaceOnUse" gradientTransform="translate(-105801.8 28234.16) scale(86.04 58.74)" y2="-477.3" x2="1232.15" y1="-477.93" x1="1232.58" id="未命名的渐变_8"><stop stop-color="#e18c57" offset="0"></stop><stop stop-color="#915f83" offset="1"></stop></linearGradient><linearGradient xlink:href="#未命名的渐变_8" gradientTransform="translate(-35239.51 22315.1) scale(31.66 46.56)" y2="-475.09" x2="1120.48" y1="-476.13" x1="1120.63" id="未命名的渐变_8-2"></linearGradient><linearGradient gradientUnits="userSpaceOnUse" gradientTransform="translate(-32976.62 14252.36) scale(28.09)" y2="-500.39" x2="1179.93" y1="-501.9" x1="1179.93" id="未命名的渐变_4"><stop stop-color="#ffa47d" offset="0"></stop><stop stop-color="#ff6b47" offset="1"></stop></linearGradient><linearGradient xlink:href="#未命名的渐变_8" gradientTransform="translate(-108791.86 34637.27) scale(88.42 72.89)" y2="-472.24" x2="1232.58" y1="-472.95" x1="1232.91" id="未命名的渐变_8-3"></linearGradient><linearGradient gradientUnits="userSpaceOnUse" gradientTransform="matrix(19.32, -1.21, -1.21, 33.07, -25141.38, 15102.7)" y2="-401.22" x2="1285.81" y1="-400.03" x1="1285.97" id="未命名的渐变_11"><stop stop-color="#ce8bff" offset="0"></stop><stop stop-color="#f35f83" offset="1"></stop></linearGradient><linearGradient xlink:href="#未命名的渐变_8" gradientTransform="translate(-68534.84 27372.39) scale(56.25 56.58)" y2="-478.29" x2="1222.32" y1="-479.33" x1="1222.65" id="未命名的渐变_8-4"></linearGradient><linearGradient xlink:href="#未命名的渐变_8" gradientTransform="translate(-82637.74 28586.77) scale(67.5 59.28)" y2="-477.05" x2="1226.97" y1="-477.86" x1="1227.3" id="未命名的渐变_8-5"></linearGradient><linearGradient xlink:href="#未命名的渐变_11" gradientTransform="translate(-89501.95 31516.58) scale(73.02 65.78)" y2="-474.94" x2="1228.73" y1="-473.97" x1="1229.22" id="未命名的渐变_11-2"></linearGradient><linearGradient xlink:href="#未命名的渐变_11" gradientTransform="translate(-23516.61 16874.78) scale(20.19 33.39)" y2="-497.31" x2="1171.97" y1="-496.12" x1="1172.16" id="未命名的渐变_11-3"></linearGradient><linearGradient xlink:href="#未命名的渐变_11" gradientTransform="translate(-78196.42 35178.48) scale(63.99 74.02)" y2="-472.41" x2="1225.58" y1="-471.22" x1="1225.95" id="未命名的渐变_11-4"></linearGradient><linearGradient gradientUnits="userSpaceOnUse" gradientTransform="translate(-56530 89247.19) scale(57 174.53)" y2="-509.67" x2="998.67" y1="-510.84" x1="998.75" id="未命名的渐变_13"><stop stop-color="#d8eeff" offset="0"></stop><stop stop-color="#e4f7ff" offset="1"></stop></linearGradient><linearGradient xlink:href="#未命名的渐变_13" gradientTransform="translate(-83512.86 5752) scale(83.32 8)" y2="-690.74" x2="1006.87" y1="-690.75" x1="1007.65" id="未命名的渐变_13-2"></linearGradient></defs><g id="图层_2"><g id="Layer_1"><g id="Basketball"><rect height="500" width="500" class="cls-1" id="Rectangle"></rect><g id="Group-5"><path d="M85.9,114.3l341.3,63.1a18,18,0,0,1,14.4,21,18.21,18.21,0,0,1-5.6,10.1L182,438.8a18,18,0,0,1-25.4-1.2,18.58,18.58,0,0,1-3.9-7L65.4,137.2a18,18,0,0,1,12.1-22.4A18.35,18.35,0,0,1,85.9,114.3Z" class="cls-2" id="Path-221"></path><path d="M214.6,412,163.3,241.2a8,8,0,0,1,5.5-9.9,7.38,7.38,0,0,1,3.9-.1L370,273.3" class="cls-3" id="Shape"></path><path d="M432,204.9c-17.7-9.3-40.2-14.9-64.7-14.9-57,0-103.3,30.2-103.3,67.5,0,25.3,21.4,47.4,53,59" class="cls-4" id="Shape-2"></path><g id="IMG_0027"><g id="Group-2"><path d="M311,209.63a32.84,32.84,0,0,1,3.9,9.5" class="cls-5" id="Path"></path><path d="M343.16,209.33a26,26,0,0,0-5.4,10.9" class="cls-5" id="Path-2"></path><path d="M333.26,208.33a28.85,28.85,0,0,0-3.1,12.9" class="cls-5" id="Path-3"></path><path d="M319.06,208.13a36.82,36.82,0,0,1,4.8,13.2" class="cls-5" id="Path-4"></path><path d="M336.86,221.13a29.47,29.47,0,0,0,10,2.9" class="cls-5" id="Path-5"></path><path d="M342.36,209.63c1.7,3.6,2.9,6.2,6.4,6.4" class="cls-5" id="Path-6"></path><path d="M311.76,209.63c-1.7,3.5-3,6.2-6.4,6.3" class="cls-5" id="Path-7"></path><path d="M316,220.23a24.11,24.11,0,0,0,8.6,5.4c1,.4,2.2.5,3.2,1,1.9.9,3.4,2.5,5.2,3.5s3.7,1.2,5.3,2.1c2.4,1.4,4.2,3,6.9,3.8" class="cls-5" id="Path-8"></path><path d="M311,210a24.11,24.11,0,0,0,8.6,5.4c1,.4,2.2.5,3.2,1,1.9.9,3.4,2.5,5.2,3.5" class="cls-5" id="Path-9"></path><path d="M342.36,210.63c-2.3,2.3-5.8,3.7-8.9,4.8-1,.4-2.2.5-3.2,1-1.9.9-3.4,2.5-5.2,3.5" class="cls-5" id="Path-10"></path><path d="M319.46,208.83a13.13,13.13,0,0,0,6.2,4.4,11.42,11.42,0,0,1,2.6.9c1.9,1.3,3.4,3,5.5,4.2a54.42,54.42,0,0,0,5.2,1.9" class="cls-5" id="Path-11"></path><path d="M331.86,207.83a13.13,13.13,0,0,1-6.2,4.4,11.42,11.42,0,0,0-2.6.9c-1.9,1.3-3.4,3-5.5,4.2a54.42,54.42,0,0,1-5.2,1.9" class="cls-5" id="Path-12"></path><path d="M309.46,226.83a13.13,13.13,0,0,0,6.2,4.4,11.42,11.42,0,0,1,2.6.9c1.9,1.3,3.4,3,5.5,4.2a54.42,54.42,0,0,0,5.2,1.9c1.8.7,3.2,2,5,2.5,1.4.4,3,.5,4.4.9,2.7.9,4.8,2.5,7.7,2.8" class="cls-5" id="Path-13"></path><path d="M310.36,235.83c2.4,2.3,5.2,2.8,8,4.3,1.5.8,2.7,2.1,4.3,2.8,1.9.9,4,.8,5.9,1.5,2.1.7,4,1.9,6.2,2.5,3.1,1,6.5,1.4,9.7,2.1" class="cls-5" id="Path-14"></path><path d="M340.26,221.13a129.28,129.28,0,0,1-14,5.8c-1.6.6-3.1,1.6-4.7,2.2-4,1.4-8,1.9-11.5,4.5" class="cls-5" id="Path-15"></path><path d="M347.26,224.43c-6.7,5.6-15.2,11.6-23.4,14.6-2.5.9-4.8.4-7.2.9s-4.8,2-7.3,2.8" class="cls-5" id="Path-16"></path><path d="M345.06,235.53c-5.6,4.8-11.5,6.1-18.3,8.4-4.1,1.4-8.3,3.2-12.8,3.3" class="cls-5" id="Path-17"></path><path d="M316,220.73a35.86,35.86,0,0,1-6.7,4.2" class="cls-5" id="Path-18"></path><path d="M306.66,217.53c3.7,8.6,4.8,18.9,2.2,28" class="cls-5" id="Path-19"></path><path d="M315.56,220.13c1.5,8.8,3.3,17.8,1.1,26.7" class="cls-5" id="Path-20"></path><path d="M326.86,221.13c1,9.3,1.8,18.9.6,28.3" class="cls-5" id="Path-21"></path><path d="M339.06,220.13a46.47,46.47,0,0,0,1,28.8" class="cls-5" id="Path-22"></path><path d="M349.26,216.93c-3.5,8.9-6.2,20.2-2.5,29.5" class="cls-5" id="Path-23"></path><path d="M304.46,214.23c0-.2-.1-.4,0-.6,0-4.7,10.5-6,23.3-6s23,1.6,23.3,6a2.92,2.92,0,0,1-.2.9c-1-3.2-11.1-4.7-23.2-4.7C315.86,209.83,306.06,211.13,304.46,214.23Z" class="cls-6" id="Path-24"></path><polygon points="349.86 216.83 376.36 217.33 376.46 212.83 349.86 212.23 350.86 214.53 349.86 216.83" class="cls-6" id="Path-25"></polygon><path d="M304.46,213.23c1,3.2,11.1,5.7,23.3,5.7,11.8,0,21.5-2.4,23.1-5.4a1.27,1.27,0,0,1,.1.6c-.2,5.9-10.1,7.6-23,7.6s-23.1-2.4-23.7-7.6A2.92,2.92,0,0,1,304.46,213.23Z" class="cls-6" id="Path-26"></path></g><path d="M169.1,179.2a27.66,27.66,0,0,1,6.6-2.5c3.1-.5,50.2-12.3,56.5-7.2s26,39.9,22.7,51.6-14.6,4.2-16.8-7c-1.5-6.6-13.6-32.1-13.6-32.1a45.23,45.23,0,0,1-19.2.3c-5.8-1.2-26.2-1.4-26.2-1.4l-6.6,3.9Z" class="cls-7" id="Path-27"></path><path d="M202.2,181.7l.1.1c-7.8-.8-23.2-.9-23.2-.9l-2.7,1.6-3.4-.4a111.49,111.49,0,0,1,10.7-7.2c2.3-.5,4.9-1.1,7.7-1.7C193.7,174.4,197.3,177.2,202.2,181.7Z" class="cls-8" id="Combined-Shape"></path><path d="M223.5,177c5-2.1,14.5-.9,18.8,8.8,2.9,6.4,3.1,16,.6,28.9h0l.7,9.9a18.83,18.83,0,0,1-5.7-10.5c-1.3-6.6-13.4-32.1-13.4-32.1a46.08,46.08,0,0,1-5.8,1C220,179.8,221.5,177.8,223.5,177Z" class="cls-8" id="Combined-Shape-2"></path><g id="Group-19"><path d="M228.1,216.7c.2-.2,1.1-7.6-1.3-11.9s-4.3-5.5-4.3-5.5-3.2,3-5.5,0,.3-4.7.3-4.7-8-8.8,1.2-15c9.7-6.5,15.5.6,18,5.3s4.2,12,1.9,14S235,201,235,201s3.2,7.2,7.5,9.2,4.8,10.7-2.5,13S227.9,216.9,228.1,216.7Z" class="cls-9" id="Path-28"></path><path d="M217.2,194.6s-8-8.8,1.2-15c4.8-3.2,8.6-3.1,11.6-1.6a9.51,9.51,0,0,1-2.8,2.9c-4.6,3-9.3,4.1-8.5,7.6s4.1,8.7,8.2,9.7,5.7,0,5.7,0a5,5,0,0,1,2.1-2.2c1.5-.8,3.5-.3,4.2-1.1a2.18,2.18,0,0,0,.5-.8c.2,2.1.1,4.5-.7,5.4a7.8,7.8,0,0,1-3.5,1.9h0a21.79,21.79,0,0,1-9.5-.9C222.5,199.5,219.5,196.7,217.2,194.6Z" class="cls-10" id="Path-29"></path><path d="M233.6,186.8c1.1,1,3.9,2.9,1.4,4.1" class="cls-11" id="Path-30"></path><path d="M231.9,192.1a19.78,19.78,0,0,1,3.1,1.2c0,.2-2.1,1.2-2.9.4S231.9,192.1,231.9,192.1Z" class="cls-12" id="Path-31"></path><path d="M217.5,196.6a7.73,7.73,0,0,1,2.9,2.2" class="cls-13" id="Path-12-2"></path></g><path d="M241,208.8l.4.3a14.31,14.31,0,0,0,1.5,1.1l2.7,2a8,8,0,0,1,1.3,6.5l-13.2,5-5.9-7.1v-.2c5.9,2,10.1,2,12.5-.1,1.4-1.2,1.6-3.7.7-7.5Z" class="cls-8" id="Combined-Shape-3"></path><g id="Group-2-2"><circle r="14" cy="186.69" cx="162.27" class="cls-14" id="Oval"></circle><path d="M166.47,189.39c4,.7,7,1.5,8.8,2.5a14,14,0,0,1-26.4-1.1C156.07,189.19,162,188.69,166.47,189.39Z" class="cls-15" id="Combined-Shape-4"></path></g><path d="M162.3,172.7c-.4,6.3,6.2,17.2,13.5,18" class="cls-16" id="Path-32"></path><path d="M149.5,180.8c8-.2,14.5,9.8,14.3,19.9" class="cls-16" id="Path-33"></path><path d="M161,191.3c4.5.3,18.9,4.3,29.3,1.6,0,0,19.5,47.5,26.7,55.9s26.7-6.6,9.1-28.2-30.2-41.7-35.6-42.4-25.4,8.4-30.3,8.7-15.6.6-15.3,2.5c.2,1.5,3,1.2,3,1.2s-3.2,0-2.8,1.7,3.5,1,3.5,1-3.3.8-2.7,2.2,3.6.4,3,.6-2.8,1-2.1,2.3,6.8-1.2,6.8-1.2-2.8,2.2-2.6,4,1.6.4,2.9-.7,3.8-2.5,4.3-4.5S159.5,191.2,161,191.3Z" class="cls-17" id="Path-34"></path><path d="M183.6,193.8c2.6-1.3,5.4-3.2,5.6-3.2s.6.7,1.1,2.2a34,34,0,0,1-6.5.9Z" class="cls-8" id="Combined-Shape-5"></path><path d="M224.2,218.1c.7.8,1.3,1.7,2,2.5l-.2-.3,4.9,18.9L217.3,249l-.3-.3a36.85,36.85,0,0,1-3.4-5.1,50.67,50.67,0,0,0,4.9-7.6c2.3-4,4.2-10,5.7-17.9Z" class="cls-8" id="Combined-Shape-6"></path><g id="Group-3"><path d="M192.28,277.51s-1.95-4.09-3.28-3.81-4.31,3.34-6,6-1.11,6.93-2.86,9.69-4.65,7.32-4.89,11.12c-.38,5.58,1.65,8.67,3.33,9s4.46-1.62,4.46-1.62Z" class="cls-10" id="Path-35"></path><path d="M191.09,276.2c1.75.65,7.27,7.56,7.34,9.07s-7.86,11.86-10.3,15.56-3.12,7.06-6.5,7.77-5.68-5-2.54-11.07,3-4.55,3.88-9.9S189.44,275.55,191.09,276.2Z" class="cls-18" id="Path-36"></path></g><path d="M238.2,320.6s-2.7-3.6-13.2-7.8c-2.1-.9-11.6-9.6-28.4-26.3h0a.91.91,0,0,0-1.1-.2c-1.9.9-2.1,2.1-.7,3.7,3.5,4,20.1,30.4,25.4,41.9,4.3,9.4,10.8,11.2,15.6,10.8S250.1,331,250.1,331Z" class="cls-19" id="Path-37"></path><path d="M199.8,289.6c15,14.9,23.4,22.6,25.2,23.2a7.88,7.88,0,0,1,1.9.9L217.3,326c-5.8-10.7-15.5-26.3-20.2-33.1Z" class="cls-8" id="Combined-Shape-7"></path><path d="M232.6,316.4c4.4,2.5,5.6,4.2,5.6,4.2h0L250,330.8l.2.2a78.51,78.51,0,0,1-6.7,6.9,41.86,41.86,0,0,1-5.4-5.9,25.63,25.63,0,0,1-5.4-15.2Z" class="cls-8" id="Combined-Shape-8"></path><path d="M195.5,286.2a.91.91,0,0,1,1.1.2h0l.5.5,1.4,1.4a8.31,8.31,0,0,0-1.7,1.2,9.19,9.19,0,0,0-1.2,1.6,5.31,5.31,0,0,0-.9-1.1C193.4,288.3,193.6,287.1,195.5,286.2Z" class="cls-20" id="Combined-Shape-9"></path><path d="M200.5,295.3s-9.5,15.3-10.9,17.9.5-2.9-5.7-11.4c-4.1-5.5-13.6-13.2-28.5-22.9h0a2.25,2.25,0,0,0-1.8-.2c-1.8.7-2,1.9-.7,3.6,2.3,3,17,31.5,20.5,39.7s9.1,15.9,16,15.9,30.1-21.1,30.1-21.1Z" class="cls-21" id="Path-38"></path><path d="M187,307.2c2.3,5.1,1.6,7.9,2.5,6.3q-2.55,5.4-3,4.8c-.3-.3-.1-4,.5-10.9Z" class="cls-8" id="Combined-Shape-10"></path><path d="M196.8,301.3l20.9,17.1c-1.5,1.4-4,3.5-6.8,5.8a51.2,51.2,0,0,1-9.5-8.6,35.56,35.56,0,0,1-6.1-12C195.8,302.9,196.3,302.1,196.8,301.3Z" class="cls-8" id="Combined-Shape-11"></path><path d="M226,270.5s-7.5,1.6-12.3,5.9-19.6,21.1-19.6,21.1a25.73,25.73,0,0,0,6,12.9c5.3,6.3,17,11,17,11l15.8-16.7s.5,10.4,1.3,13.7c2.1,8.7,10.5,19.6,16,17.8,2.3-.8,8.5-14.1,13.1-28.9s3.9-35.8,3.9-35.8Z" class="cls-22" id="Path-39"></path><path d="M243.4,292.1l-9.8,23.6c-.5-4.3-.9-11.1-.9-11.1h0Z" class="cls-23" id="Combined-Shape-12"></path><path d="M226,270.5l41,.9s.2,5.3-.2,12.4a43.17,43.17,0,0,1-7.6,1.2c-12.9,1.1-24.5-3.6-34.9-14,1.1-.3,1.7-.5,1.7-.5Z" class="cls-8" id="Combined-Shape-13"></path><path d="M151.9,271.5s-3.6-5-4.9-4.5-6.1,5.4-6.7,7.9-.6,5-2.5,7.3-3.7,7.7-3.7,12.7,2.2,10.4,3.9,10.9,4.9-2.6,4.9-2.6Z" class="cls-10" id="Path-40"></path><path d="M156.8,282.5a7.37,7.37,0,0,1-4.7,3.7c-1.3.2-2.5,3.7-2.9,8s-.8,6.2-3.8,8.2a7.49,7.49,0,0,1-5.5,1.4s-2.5-3.5-1.8-9.7c.9-6.2,1.9-10.9,5.9-16.7s6.3-7.2,7.6-6.9,6.3,6.7,6.6,8.1S157.5,281.4,156.8,282.5Z" class="cls-24" id="Path-41"></path><path d="M155.6,286.9a45.23,45.23,0,0,0-2.7-4.5c-.3-.4-.5-.8-.7-1.1h0a2,2,0,0,1,1.1-2.6,2.24,2.24,0,0,1,1.8.1c1.4.9,3,1.9,4.8,3.2.2.2-1-.2-2.7,1.8C155.3,286,155.8,287.2,155.6,286.9Z" class="cls-20" id="Path-42"></path><path d="M224.2,218l3.6-2.2s7.2,6,12.3,2.8.9-9.9.9-9.9l2.2-1.2a45.89,45.89,0,0,1,20,13.8c15.1,18.2,13.8,49.9,13.8,49.9s-6.8,7.5-20.5,9.9c-16.4,2.9-32.9-9.9-32.9-9.9s2.6-7.7,2.5-7.8S213,246.5,213,246.5s5.6-1.7,8.3-9.8A55.94,55.94,0,0,0,224.2,218Z" class="cls-25" id="Path-43"></path><path d="M276.9,268.3h0c-3.3,3.8-9.7,8.2-20.3,9.5-15.3,1.9-29.6-6.7-32.4-8.6.2-.5.4-1.1.6-1.7a48,48,0,0,0,28.4,6.8c9-.6,17.8-4.5,23.6-11.8C276.9,264.9,276.9,266.8,276.9,268.3Z" class="cls-20" id="Combined-Shape-14"></path><path d="M225.1,217.4c1.4,6.4,1.8,15.6-1.7,22.4a24.59,24.59,0,0,1-8.2,9.6c-1.3-1.7-2.2-2.9-2.2-2.9s5.6-1.7,8.3-9.8a55.94,55.94,0,0,0,2.9-18.7Z" class="cls-20" id="Path-44"></path><path d="M249.9,262.7l3.5,1.6a.19.19,0,0,0,.3-.1h0a57.76,57.76,0,0,0,4.5-31.9V232a1.88,1.88,0,0,0-2.2-1.7c-.2,0-.3.1-.4.1l-15.8,5.9a1,1,0,0,0-.6,1.3l.9,2.3a1,1,0,0,0,1.3.6l12.8-4.8h0a52.2,52.2,0,0,1-4.4,26.5h0C249.6,262.4,249.7,262.6,249.9,262.7Z" class="cls-10" id="Path-45"></path><g id="Group-3-2"><ellipse transform="translate(-84.29 150.92) rotate(-30.51)" ry="2.4" rx="2" cy="230.01" cx="234.58" class="cls-10" id="Oval-2"></ellipse></g><path d="M241.8,208.3c5.3,7.5,3.3,11.4,0,13-5.4,2.6-12.2-.6-15.1-4.8l1.1-.7s7.2,6,12.3,2.8.9-9.9.9-9.9Z" class="cls-20" id="Path-46"></path><path d="M242.3,208.1l.9-.5s7.5,1.5,15.6,9.2Z" class="cls-20" id="Path-47"></path><line y2="320.3" x2="185.2" y1="313.8" x1="189.2" class="cls-11" id="Path-18-2"></line></g><g id="Group-4"><path d="M362.3,136.7l55-16.4a6.13,6.13,0,0,1,7.5,4,11,11,0,0,1,.2,1.8V246a6,6,0,0,1-2.4,4.8l-55,41a6,6,0,0,1-8.4-1.2A5.78,5.78,0,0,1,358,287V142.5A6,6,0,0,1,362.3,136.7Z" class="cls-20" id="Rectangle-2"></path><path d="M372,136.6l47.7-16.7a4,4,0,0,1,5.1,2.5,4.3,4.3,0,0,1,.2,1.2V246.2a5.91,5.91,0,0,1-2,4.5l-48.3,42.4a3.87,3.87,0,0,1-5.6-.4,4.21,4.21,0,0,1-1-2.6V142.3A5.74,5.74,0,0,1,372,136.6Z" class="cls-26" id="Rectangle-3"></path><path d="M412.8,191.9l41.6-2.1a19.34,19.34,0,0,1,20.3,18.3v1.3a21,21,0,0,1-20.9,20.7H389a2,2,0,0,1-2-2V201.8h0l25.2-9.8A1.27,1.27,0,0,1,412.8,191.9Z" class="cls-20" id="Rectangle-4"></path><path d="M453.8,230H389a2,2,0,0,1-2-2v-6h83.3A20.81,20.81,0,0,1,453.8,230Z" class="cls-27" id="Combined-Shape-15"></path></g></g></g></g></g></svg>